<svg width="67" height="32" viewBox="0 0 67 32" fill="none" xmlns="http://www.w3.org/2000/svg">
<path d="M24.1808 3.79373C17.2269 3.79372 15.558 5.76916 13.3328 14.7997C11.1076 23.8302 9.80953 27.9692 9.43866 28.9099" stroke="#611610" stroke-width="5.84043" stroke-linecap="round"/>
<path d="M38.6502 3.79373C31.6964 3.79372 30.0274 5.76916 27.8022 14.7997C25.577 23.8302 24.279 27.9692 23.9081 28.9099" stroke="#611610" stroke-width="5.84043" stroke-linecap="round"/>
<path d="M53.1193 3.79373C46.1655 3.79372 44.4966 5.76916 42.2713 14.7997C40.0461 23.8302 38.7481 27.9692 38.3772 28.9099" stroke="#611610" stroke-width="5.84043" stroke-linecap="round"/>
<path d="M3 20.0332C4.22067 19.6156 5.12769 19.3985 6.5249 19.1832C16.8259 17.5961 27.318 16.7384 37.7276 16.3157C45.2899 16.0086 52.8539 16.7693 60.4071 16.361C61.8418 16.2835 62.5665 15.8384 64 16.157" stroke="#611610" stroke-width="5.84043" stroke-linecap="round"/>
</svg>
